<svg width="400" height="400" fill="#4E5050" xmlns="http://www.w3.org/2000/svg"><g transform="translate(53 139)"><g transform="translate(222)"><ellipse cx="13.297" cy="13.028" rx="13.114" ry="12.854"/><path d="M3.377 43.571v73.418c0 3.965 5.161 5.011 10.322 5.011s10.322-1.046 10.322-5.01V43.57c0-5.293-5.16-6.034-10.322-6.056-5.161-.022-10.322.828-10.322 6.056z"/></g><path d="M270 6.056V116.99c0 3.965 5.25 5.011 10.5 5.011s10.5-1.046 10.5-5.01V6.055C291 .741 285.75 0 280.5 0S270 .74 270 6.056z"/><path d="M117.171 78c0-23.276 18.404-44 44.974-44 26.571 0 45.323 20.416 45.323 44 0 25.19-20.886 44-45.061 44-26.767 0-45.236-20.746-45.236-44zm44.974 26.092c14.157 0 24.763-11.792 24.763-26.268s-10.693-25.96-24.763-25.96c-14.069 0-24.61 11.616-24.61 26.136s10.367 26.092 24.61 26.092z"/><path d="M105.356 99.539c0 11.154-26.088 22.461-44.28 22.461-22.164.066-42.648-11.787-53.616-31.023A59.835 59.835 0 0 1 0 61.827a61.471 61.471 0 0 1 9.947-33.636 61.069 61.069 0 0 1 32.72-24.51A70.58 70.58 0 0 1 63.933.175c25.063 0 40.768 17.538 40.768 32.81 0 10.587-8.507 25.423-29.447 25.423-9.576 0-12.826-4.052-12.826-8.714 0-6.209 5.824-13.485 10.012-13.485 1.767 0 2.835 1.764 6.282 1.263a5.471 5.471 0 0 0 5.148-5.555c0-5.272-6.304-12.374-19.632-12.374a52.41 52.41 0 0 0-15.073 2.462 40.083 40.083 0 0 0-21.813 17.428 40.963 40.963 0 0 0-6.543 22.352 39.393 39.393 0 0 0 4.886 19.15 40.8 40.8 0 0 0 35.38 20.478c20.46 0 26.176-10.892 30.342-12.766 7.373-3.18 13.938 5.664 13.938 10.893z"/></g></svg>