<svg height="400" width="400" xmlns="http://www.w3.org/2000/svg" xmlns:xlink="http://www.w3.org/1999/xlink"><linearGradient id="a" x1="0%" y1="50%" y2="50%"><stop offset="0" stop-color="#0c59a4"/><stop offset="1" stop-color="#114a8b"/></linearGradient><radialGradient id="b" cx="55.234%" cy="50.866%" gradientTransform="matrix(.86299 0 0 1 .076 0)" r="61.978%"><stop offset=".717" stop-opacity="0"/><stop offset=".946" stop-opacity=".53"/><stop offset="1"/></radialGradient><linearGradient id="c" x1="76.69%" x2="33.271%" y1="24.818%" y2="83.175%"><stop offset="0" stop-color="#1b9de2"/><stop offset=".162" stop-color="#1595df"/><stop offset=".667" stop-color="#0680d7"/><stop offset="1" stop-color="#0078d4"/></linearGradient><radialGradient id="d" cx="42.319%" cy="72.424%" gradientTransform="matrix(.1484308 -.80142303 .9889228 .12028832 -.355519 .976643)" r="85.009%"><stop offset=".763" stop-opacity="0"/><stop offset=".946" stop-opacity=".5"/><stop offset="1"/></radialGradient><radialGradient id="e" cx="9.855%" cy="27.453%" gradientTransform="matrix(-.02474 .99931 -.66554 -.03715 .284 .186)" r="118.734%"><stop offset="0" stop-color="#35c1f1"/><stop offset=".111" stop-color="#34c1ed"/><stop offset=".232" stop-color="#2fc2df"/><stop offset=".314" stop-color="#2bc3d2"/><stop offset=".673" stop-color="#36c752"/></radialGradient><radialGradient id="f" cx="94.715%" cy="45.501%" gradientTransform="matrix(.18720293 .95968274 -.6391487 .28108548 1.060797 -.582222)" r="57.092%"><stop offset="0" stop-color="#66eb6e"/><stop offset="1" stop-color="#66eb6e" stop-opacity="0"/></radialGradient><g fill="none" transform="translate(72 72)"><path d="m231.05 190.534a93.452 93.452 0 0 1 -10.533 4.714c-10.981 4.125-23.108 6.464-35.9 6.464-47.32 0-88.543-32.552-88.543-74.323 0-11.745 6.796-21.926 16.426-27.289-42.795 1.795-53.797 46.4-53.797 72.531 0 73.873 68.09 81.37 82.76 81.37 7.907 0 19.841-2.303 27.032-4.559.438-.145.874-.292 1.31-.443 27.76-9.573 51.188-28.407 66.589-52.82 2.208-3.501-1.676-7.568-5.343-5.645z" fill="#4E5050"/><path d="m231.05 190.534a93.452 93.452 0 0 1 -10.533 4.714c-10.981 4.125-23.108 6.464-35.9 6.464-47.32 0-88.543-32.552-88.543-74.323 0-11.745 6.796-21.926 16.426-27.289-42.795 1.795-53.797 46.4-53.797 72.531 0 73.873 68.09 81.37 82.76 81.37 7.907 0 19.841-2.303 27.032-4.559.438-.145.874-.292 1.31-.443 27.76-9.573 51.188-28.407 66.589-52.82 2.208-3.501-1.676-7.568-5.343-5.645z" fill="#4E5050" opacity=".35"/><path d="m105.711 241.414c-8.894-5.514-16.615-12.784-22.735-21.376-9.47-13.295-15.132-29.65-15.132-47.407 0-26.13 12.168-49.275 30.924-63.939 4.26-3.33 9.713-6.69 13.732-8.592 3.12-1.477 8.457-4.137 15.545-4.036 11.752.166 20.631 6.157 25.685 12.962 3.884 5.228 6.278 11.669 6.358 18.66.003-.21 24.465-79.603-80.049-79.603-43.893 0-80.039 41.67-80.039 78.215 0 23.182 5.38 41.69 12.115 56.033 15 31.95 42.818 56.678 76.845 67.573a127.947 127.947 0 0 0 39.085 6.096c14.14 0 27.731-2.326 40.45-6.558a75.75 75.75 0 0 1 -22.72 3.49c-14.671 0-28.346-4.255-40.064-11.518z" fill="#4E5050"/><path d="m105.711 241.414c-8.894-5.514-16.615-12.784-22.735-21.376-9.47-13.295-15.132-29.65-15.132-47.407 0-26.13 12.168-49.275 30.924-63.939 4.26-3.33 9.713-6.69 13.732-8.592 3.12-1.477 8.457-4.137 15.545-4.036 11.752.166 20.631 6.157 25.685 12.962 3.884 5.228 6.278 11.669 6.358 18.66.003-.21 24.465-79.603-80.049-79.603-43.893 0-80.039 41.67-80.039 78.215 0 23.182 5.38 41.69 12.115 56.033 15 31.95 42.818 56.678 76.845 67.573a127.947 127.947 0 0 0 39.085 6.096c14.14 0 27.731-2.326 40.45-6.558a75.75 75.75 0 0 1 -22.72 3.49c-14.671 0-28.346-4.255-40.064-11.518z" fill="#4E5050" opacity=".41"/><path d="m152.314 148.857c-.81 1.05-3.303 2.498-3.303 5.664 0 2.605 1.7 5.117 4.721 7.226 14.38 10.036 41.486 8.684 41.559 8.684 11.19-.04 21.256-3.116 30.273-8.388a61.468 61.468 0 0 0 11.322-8.5c11.747-11.163 18.91-26.894 19.108-44.373.255-22.415-7.96-37.317-11.337-43.916-21.192-41.418-66.939-65.254-116.68-65.254-70.112 0-127.029 56.346-127.97 126.2.473-36.543 36.793-66.05 79.965-66.05 3.5 0 23.462.341 42.005 10.073 16.334 8.573 24.898 18.932 30.85 29.208 6.18 10.67 7.28 24.146 7.28 29.519s-2.709 13.328-7.793 19.908z" fill="#4E5050"/><path d="m152.314 148.857c-.81 1.05-3.303 2.498-3.303 5.664 0 2.605 1.7 5.117 4.721 7.226 14.38 10.036 41.486 8.684 41.559 8.684 11.19-.04 21.256-3.116 30.273-8.388a61.468 61.468 0 0 0 11.322-8.5c11.747-11.163 18.91-26.894 19.108-44.373.255-22.415-7.96-37.317-11.337-43.916-21.192-41.418-66.939-65.254-116.68-65.254-70.112 0-127.029 56.346-127.97 126.2.473-36.543 36.793-66.05 79.965-66.05 3.5 0 23.462.341 42.005 10.073 16.334 8.573 24.898 18.932 30.85 29.208 6.18 10.67 7.28 24.146 7.28 29.519s-2.709 13.328-7.793 19.908z" fill="#4E5050"/></g></svg>