<svg width="400" height="400" xmlns="http://www.w3.org/2000/svg"><path d="M200.5 336c-1.347 0-2.688-.024-4.027-.063l27.692-76.105h38.11c6.688 0 14.031-5.142 16.319-11.424l30.043-82.521c4.915-13.51-2.823-24.564-17.2-24.564h-52.869l-44.36 121.897h-.017l-25.148 69.1C109.379 318.138 65 264.504 65 200.5c0-62.158 41.855-114.535 98.917-130.498l-25.949 71.321h-.008l-43.138 118.51 28.717.002 36.686-100.703h21.582l-36.686 100.703 28.707.005 34.187-93.953c4.918-13.51-2.82-24.564-17.184-24.564h-24.14l27.719-76.18c2.02-.09 4.049-.143 6.09-.143C275.335 65 336 125.665 336 200.5c0 74.834-60.665 135.5-135.5 135.5zm81.985-176.94h-21.576l-30.216 82.904h21.577l30.215-82.905z" fill="#4E5050"/></svg>