<svg viewBox="0 0 500 500" xmlns="http://www.w3.org/2000/svg"><clipPath id="a"><circle cx="470.25" cy="400.48" r="20.55"/></clipPath><path d="M451.65 405.53a228.53 228.53 0 0 0 27.94-109.84C479.59 168.9 376.8 66.11 250 66.11S20.41 168.9 20.41 295.69a228.53 228.53 0 0 0 27.94 109.84z" fill="#1b75bb"/><path d="M341.69 43.89a8.71 8.71 0 0 0 1-9.57c-14.19-26.65-40.43-31.09-51-31.77-2.58-.16-4.2-.09-4.38-.09a8 8 0 0 0-7.34 6.93c-.84 5.26-4.17 14.83-7.68 24l-1.69 4.23a40.6 40.6 0 0 0-9.12-1.9c-7-.44-10.12 2.82-11.55 5.64-4.57 9 5.19 17.59 9.36 21.25a156.07 156.07 0 0 0 24.62 17c15 8.58 29.24 14.22 37.22 14.72 7 .44 10.13-2.82 11.56-5.64 4.29-8.48-4.08-16.57-8.56-20.55l1.71-2.86c7.45-11.22 15.73-21.28 15.85-21.39z" fill="#fff"/><path d="M395.47 360.92a7.71 7.71 0 0 0-3.47-9.52l-5.2-2.86a7.19 7.19 0 0 0-1.82-.72c-.23-.16-.46-.31-.71-.45l-5.19-2.85a7.59 7.59 0 0 0-1.77-.7l-.18-.12-5.19-2.85a7.63 7.63 0 0 0-2.72-.89l-4.68-2.57a7.83 7.83 0 0 0-1.74-.7c-.2-.13-.4-.26-.61-.37l-5.2-2.87a7.61 7.61 0 0 0-3-.91l-4.62-2.54a7.66 7.66 0 0 0-3.71-1 7.75 7.75 0 0 0-5.76 2.59 18.1 18.1 0 0 0-6.39-1.21 15.88 15.88 0 0 0-5 .81L317 284.06a86.87 86.87 0 0 0 26.06-11.59 7.86 7.86 0 0 0 1.49 1.73 7.72 7.72 0 0 0 9.5.43c12.26-8.72 19.85-23.42 24.47-36.84a7.71 7.71 0 0 0 5.55-2.94c9.18-11.8 10.18-26.3 8-39.6a7.72 7.72 0 0 0 5.06-8.09c-1.94-18-15.34-35.53-22.68-43.94 30.71-39.39 31.82-59 31.84-61.22a7.72 7.72 0 0 0-4.14-6.92c-11.28-5.89-24.37-8.87-38.92-8.87-18.29 0-34.44 4.71-42.54 7.56-19.51-21.56-44.57-21.84-45.8-21.84a7.68 7.68 0 0 0-6.62 3.87q-3.45-1-6.78-1.77c-4.86-11.03-19.33-32.2-59.11-35.63h-.67a7.7 7.7 0 0 0-7.28 5.19c-.41 1.16-8.79 25.73-6.25 45.49-9.7 4.28-12.71 8.89-13.64 11.51a7.72 7.72 0 0 0 7.27 10.29 6.8 6.8 0 0 0 .9-.06l1.25-.14-4.73 13.64A60.76 60.76 0 0 0 151 118.8a7.72 7.72 0 0 0-1.45 8.85c-15.49 12.5-20.12 27.6-20.37 28.42a7.72 7.72 0 0 0 3.56 8.87c-5.84 19.36 4 32.76 11.53 37.85a5.93 5.93 0 0 0 .84.49 111.66 111.66 0 0 0 19 34.12 7.71 7.71 0 0 0 5.85 2.68 7.49 7.49 0 0 0 1.82-.22c.64.89 1.27 1.73 1.9 2.54-11.39-4-22.25-10.62-32.48-19.92a138.39 138.39 0 0 1-20.56-23.79 154.21 154.21 0 0 1-8.43-13.64c7-4.24 13.74-10.32 15.35-16.31a11.29 11.29 0 0 0-5.4-13l-.23-.13a12.77 12.77 0 0 0-6.19-1.57c-7.56 0-14.57 6.3-21.09 14.13-7.36-5.31-14.68-9.64-25-12.63-6.23-1.8-11.39-2.72-15.35-2.72-5.16 0-8.94 1.6-11.25 4.74a10.91 10.91 0 0 0-1.34 10.05c1.9 6 7.53 8.72 10.9 10.35l1 .49c-4.3 2.72-10 7.41-9.14 14.29.6 4.63 4.31 9.57 13 9.57a25.79 25.79 0 0 0 4.84-.47 34.94 34.94 0 0 0 8-2.71c1.12 2.11 3.77 5.27 9.66 5.8.42 0 .84.06 1.25.06 4.47 0 8.27-2.14 11.34-4.82 1.91 3.32 4.27 7.14 7.07 11.26 0 0 0 .09.07.12s.17.23.24.35l.33.47.1.14a164 164 0 0 0 24.11 27.88 128.61 128.61 0 0 0 15.79 12.36c-8-4.15-16.38-7.17-24.64-7.17a27.89 27.89 0 0 0-19.07 7.12c-8.66 7.7-11.56 19.87-13.92 29.64-.27 1.15-.54 2.26-.81 3.34a211.2 211.2 0 0 0-5.53 28.44c-2.28 21 1.4 36.76 11.26 48.22 7.65 8.91 18.29 13.61 30.76 13.61a69 69 0 0 0 23.6-4.64c1.21-.44 2.59-1 4.1-1.59 6-2.36 14.14-5.6 20.1-5.6a6.86 6.86 0 0 1 3.88.88l1.11.87c6 4.71 14.42 11.24 23.51 14.05l-2 16.52a7.71 7.71 0 0 0 7.43 8.65l89.54 2.63h.23a7.72 7.72 0 0 0 7.71-7.79l-.25-23.7a28.08 28.08 0 0 0 11.8-7.1 30.26 30.26 0 0 0 4.88-6.48l5 .91a8 8 0 0 0 1.8.78c.57.17 5.51 1.9 3 11.1a7.71 7.71 0 0 0 7.44 9.75 8.2 8.2 0 0 0 1.63-.17l29.29-6.34c3.35 3.65 8.92 8.16 15.91 8.16 3.33 0 8.3-1.05 13.08-6.11 5.32-5.64 7.27-11.22 5.8-16.58a12.46 12.46 0 0 0-1.44-3.23z" fill="#fff"/><text fill="#e53e31" font-family="MijaW03-Regular" font-size="29.86" transform="translate(144.66 469)">April 21–22, 2020</text><path d="M217.69 255.37l-17.48 142 89.55 2.63-1.46-138.52z" fill="#2b2728"/><path d="M323.91 344.87l-20.69-84.9m-140.5 55.14l51.9-70.29" fill="none" stroke="#58595b" stroke-miterlimit="10" stroke-width="4.82"/><path d="M276.98 253.75l63.33-22.68 18.51-75.16 5.49-23.94 27.46-43.75-13.04-11.96-42.21 5.59-47.03 17.9-53.99-48.42-27.34-24.49-2.31 62.61-31.28 46.5 5.14 49.96 41.28 54.33z" fill="#fff"/><path d="M146.94 153.34c-19.41 28.88 1.65 43.06 1.65 43.06-.74-1.79.54-10.47.54-10.47 2.63 25.25 20.85 46.44 20.85 46.44-.93-3.09-1.12-18.25-1.12-18.25 1.88 17.12 19.08 32.51 19.08 32.51C186 244.07 185 229 185 229c5.73 13.81 13.55 21.93 19 26.27a34.08 34.08 0 0 0 6.55 4.25c.9.44 1.78.85 2.65 1.26l-.17.09a60.94 60.94 0 0 1 12.97 5.67c-15.54-9-9.79-4.2.26-2.38 7.38 1.33 12.12 3.47 18.87 2.55 14-1.91 28-3.37 42.1-4.48 15.46-1.22 24.82-4.46 39-8l8.82-.81c5.41-3.47 10.88-6.68 16.65-9.66.94-.49 1.9-.87 2.86-1.28a157.71 157.71 0 0 0 8.26-16.48c1 3.68-.48 9.32-2.43 14.46a45.07 45.07 0 0 1 7.41-1.28c.07-.08.11-.16.18-.23a16.31 16.31 0 0 1 2.49-2.44l-.94.38c6.57-13.76 7.26-30.78 7.26-30.78 4.42 6.18 1.22 24 1.22 24 20-25.67-7.07-69.34-7.07-69.34 7.79 5.79 18.54 27.22 18.54 27.22-2.37-22-25.16-44.39-25.16-44.39 34.08-42 34.28-61.68 34.28-61.68-35.58-18.58-80.28 1-80.28 1-18-23.51-43.35-23.3-43.35-23.3 9.34 3.16 16.61 12.7 16.61 12.7a188.61 188.61 0 0 0-35.79-11.68c-2.29-7.28-12.88-31-54.08-34.57 0 0-10.25 29.63-4.65 47.84-13.55 4.42-15.25 9.21-15.25 9.21l13.47-1.58L185 111.08a53.43 53.43 0 0 0-28.56 13.16c3.22-1.49 13.1.44 13.1.44-26.32 11-33 33.57-33 33.57a14.57 14.57 0 0 1 10.4-4.91zm189.18-58.43s29.24-14.36 47.18-4.73c0 0-10.37 25.19-25.39 34.4 0 0-8.76-18.41-21.79-29.67zM210.89 38.85c22.79 4.7 34.17 23.89 30.49 24.72-8.53 1.9-31.56 15.28-31.56 15.28-8.82-12.32 1.07-40 1.07-40z" fill="#e73c31"/><path d="M377.69 206.89s-4.31 44.55-28.08 61.46c0 0 9-17.76 10.25-26.26 0 0-12.68 34.06-65.25 37.88a62 62 0 0 0 25.74-16.64s-69.68 27.93-115.25-7.17l96.9-15.33S348.78 204 349.81 204s27.88 2.89 27.88 2.89z" fill="#e73c31"/><path d="M282.29 229.82c-20.91 7.22-45.45 4.05-73.08-9.45a1.17 1.17 0 1 1 1-2.1c29.51 14.42 55.34 16.83 76.76 7.16 33.33-15 44.57-54.64 44.68-55a1.17 1.17 0 0 1 2.26.62c-.12.41-11.66 41.07-46 56.56-1.81.79-3.7 1.55-5.62 2.21z" fill="#fff"/><path d="M346.47 175.7s-4-33-25.68-10.35c0 0 18.6-15.42 25.47 15.44M213.9 165.75c13.25 7.54-20.2 13.15-20.2 13.15s-6-10.78-6.95-19.76 13.9-.92 27.15 6.61z" fill="#fff"/><ellipse cx="216.46" cy="140.12" fill="#fff" rx="11.37" ry="6.55" transform="rotate(-62.94 216.457 140.125)"/><path d="M287.48 10.7s32.9-1.48 48.46 27.75c0 0-19.31 23.26-26.78 40l-38.09-21.8s14.32-32.79 16.41-45.95z" fill="#2b2728"/><path d="M318.41 85.67l-11.73-10.23-20-8.36a46.07 46.07 0 0 1 4.91 5.26 210 210 0 0 0-24.86-9 77.13 77.13 0 0 0 51.68 22.33z" fill="#2b2728" opacity=".2"/><ellipse cx="291.22" cy="65.02" fill="#2b2728" rx="8.21" ry="39.87" transform="rotate(-60.08 291.211 65.024)"/><path d="M274.8 47.81s19.16 20.62 39 22.31l5.56-9.35s-23.55-7-40-24.24z" fill="#939292"/><ellipse cx="297.07" cy="54.53" fill="#fff" rx="8.16" ry="7.63" transform="rotate(-86.37 297.084 54.524)"/><ellipse cx="297.07" cy="54.53" fill="#e6e7e8" rx="6.46" ry="6.04" transform="rotate(-86.37 297.084 54.524)"/><ellipse cx="283.39" cy="47.94" fill="#fff" rx="5.02" ry="4.7" transform="rotate(-86.37 283.4 47.933)"/><ellipse cx="283.39" cy="47.94" fill="#e6e7e8" rx="3.62" ry="3.38" transform="rotate(-86.37 283.4 47.933)"/><ellipse cx="309.14" cy="62.69" fill="#fff" rx="5.02" ry="4.7" transform="rotate(-86.6 308.27 62.744)"/><ellipse cx="309.14" cy="62.69" fill="#e6e7e8" rx="3.84" ry="3.59" transform="rotate(-86.37 309.158 62.68)"/><path d="M245.97 286.09l16.62-.35-8.43 11.9 9.95-.21-20.96 26.04 4.75-16.23-12.27 1.03z" fill="#fff"/><path d="M240.08 246.14c-38.9 15.5-73.91 9.46-104-18a147.19 147.19 0 0 1-21.8-25.14c-.15.07-.29.15-.44.21-1.71.73-3.4 1.57-5.11 2.32-.89.54-1.76 1.1-2.64 1.66a157.46 157.46 0 0 0 23.6 27.49c15.89 14.51 39.36 28.8 70.21 28.8 13.17 0 27.7-2.61 43.55-8.92z" fill="#e73c31"/><path d="M114.38 203.16a144.55 144.55 0 0 1-12.76-22l-8.34 3.61A149.59 149.59 0 0 0 106.63 208c2.5-1.7 5.09-3.34 7.75-4.84z"/><path d="M93.46 187.35c-2.73 3.81-7.57 10.38-12.77 9.9-10-.9 2.49-13.17 6-16.86a130.19 130.19 0 0 1-16.29 10.15 38 38 0 0 1-9.52 3.73c-2.41.46-8.23.95-8.68-2.51s5.62-6.86 8.11-8.26a33.66 33.66 0 0 1 23.45-3.6c-5.69-1.34-11.36-2.81-16.9-4.62a80.5 80.5 0 0 1-10.34-4c-2.56-1.24-6.44-2.95-7.4-6-2.7-8.52 15.64-3.14 18.52-2.31 11.26 3.26 18.66 8.38 27.83 15.39l.65.5c3.7-4.82 15.06-20.39 22.16-16.49 9.06 5.4-14.32 20.51-20.78 20.6z" fill="#e63d31"/><path d="M305.87 302.44a332.22 332.22 0 0 0-14.48-42l-8.33 3.56a331.76 331.76 0 0 1 14.06 40.83c7.08 26.67 7.08 45.28 0 52.4-2.5 2.55-6.12 3.77-10.72 3.77a18.92 18.92 0 0 1 .22 2.82c0 2.08 0 4.15.15 6.23q10.49 0 16.78-6.32c9.74-9.85 10.53-30.45 2.32-61.29z" fill="#e73c31"/><path d="M286.27 361q-8.08-.12-20.37-5.35l-3.58 8.35q14.15 6 24.43 6.05h.9c-.55-3.05-1.02-6.05-1.38-9.05z"/><path d="M199.58 334.23l127.7 22.98 4.25-12.92-126.13-26.1z" fill="#b6795a"/><path d="M322.89 356.93s12.87 3.76 8.27 20.54l34-7.35s10.18 16 20.33 5.31-1.43-14-1.43-14l-45.72-22.07s-14.17-8.19-15.45 17.57z" fill="#b6795a"/><path d="M383.24 362.2l1.99-3.45 2.16 1.15.88-1.75-5.19-2.85-.85 1.51 1.69 1.33-1.99 3.45zm-7.72-4.02l1.98-3.46 2.17 1.16.87-1.75-5.18-2.85-.86 1.5 1.69 1.35-1.98 3.44zm-7.15-3.66l1.98-3.47 2.18 1.15.87-1.74-5.18-2.85-.87 1.51 1.7 1.34-1.98 3.45zm-7.4-3.48l2-3.45 2.16 1.16.89-1.74-5.2-2.86-.85 1.51 1.68 1.34-1.98 3.44zm-7.55-3.93l1.98-3.45 2.17 1.15.88-1.74-5.2-2.87-.85 1.52 1.69 1.34-1.98 3.45zm-7.61-3.49l1.98-3.45 2.18 1.14.86-1.73-5.18-2.86-.85 1.51 1.68 1.33-1.98 3.46z" fill="#bcbdc0"/><path d="M317.96 341.39l-2.6 13.59-1.5-.12 2.18-13.57z" fill="#808284"/><path d="M318.42 341.46l-2.62 13.6-1.49-.12 2.18-13.57z" fill="#a7aaab"/><path d="M309.47 339.6l-2.6 13.58-1.51-.12 2.19-13.56z" fill="#808284"/><path d="M309.92 339.68l-2.6 13.59-1.5-.12 2.19-13.57z" fill="#a7aaab"/><path d="M301.19 337.88l-2.57 14-1.51-.13 2.16-13.99z" fill="#808284"/><path d="M301.64 337.96l-2.58 14.01-1.49-.13 2.14-13.97z" fill="#a7aaab"/><path d="M293.42 336.54l-2.57 14-1.51-.12 2.17-13.98z" fill="#808284"/><path d="M293.88 336.63l-2.57 14-1.51-.13 2.14-13.98z" fill="#a7aaab"/><path d="M285.85 334.99L283.27 349l-1.49-.13 2.14-13.99z" fill="#808284"/><path d="M286.31 335.08l-2.59 14.01-1.51-.13 2.17-13.99z" fill="#a7aaab"/><path d="M277.44 333.29l-2.26 14.45-1.05-.22 1.96-14.44z" fill="#808284"/><path d="M277.75 333.41l-2.26 14.45-1.05-.22 1.97-14.44z" fill="#a7aaab"/><path d="M269.22 331.61l-2.26 14.44-1.05-.22 1.96-14.43z" fill="#808284"/><path d="M269.54 331.73l-2.27 14.44-1.05-.21 1.96-14.44z" fill="#a7aaab"/><path d="M262.01 330.15l-2.26 14.44-1.04-.21 1.95-14.44z" fill="#808284"/><path d="M262.32 330.27l-2.24 14.44-1.06-.21 1.96-14.44z" fill="#a7aaab"/><path d="M254.74 328.82l-2.24 14.44-1.05-.22 1.95-14.43z" fill="#808284"/><path d="M255.06 328.93l-2.25 14.45-1.05-.23 1.95-14.42z" fill="#a7aaab"/><path d="M246.17 327.15l-2.25 14.44-1.05-.21 1.95-14.44z" fill="#808284"/><path d="M246.48 327.27l-2.24 14.44-1.05-.22 1.95-14.43z" fill="#a7aaab"/><path d="M227.76 323.37l-2.25 14.43-1.05-.22 1.95-14.43z" fill="#808284"/><path d="M228.07 323.48l-2.25 14.44-1.04-.21 1.95-14.44z" fill="#a7aaab"/><path d="M222.48 322.55L220.22 337l-1.05-.22 1.96-14.43z" fill="#808284"/><path d="M222.8 322.68l-2.27 14.43-1.05-.22 1.96-14.43z" fill="#a7aaab"/><path d="M217.04 321.3l-2.26 14.44-1.04-.23 1.96-14.44z" fill="#808284"/><path d="M217.36 321.41l-2.26 14.44-1.04-.21 1.95-14.44z" fill="#a7aaab"/><path d="M212.23 320.35l-2.26 14.43-1.06-.21 1.96-14.44z" fill="#808284"/><path d="M212.53 320.46l-2.25 14.45-1.05-.22 1.97-14.44z" fill="#a7aaab"/><path d="M237.11 325.22l-2.26 14.44-1.04-.22 1.95-14.44z" fill="#808284"/><path d="M237.42 325.33l-2.25 14.45-1.04-.22 1.95-14.44z" fill="#a7aaab"/><path d="M84 315c-1.67 15.35-.34 31 9.43 42.37 12 13.95 30.08 12.55 45.86 6.75 8.58-3.16 26.74-11.92 35.44-5.17 7.12 5.53 19.66 15.82 30.18 14.59a12.91 12.91 0 0 0 5.43-1.87c6.71-4.12 4.06-9.43-2.45-11.48a19.9 19.9 0 0 1-7.61-4.09l-.22-.19a2.33 2.33 0 0 1-.28-.26c-4.2-3.81-6.2-10.12.19-20.45a85.75 85.75 0 0 1 9.18-16.51c10.14-18.17 18.85-33.69 27.54-23.97a8 8 0 0 1 .83.26c.5.47.77.78.77.78s8.78 5.79 12.63-2.79-16.36-25.19-46.58-14.41c-13.8 4.92-26.07 7-39-.84-15.52-9.4-45.46-35.4-63.65-19.25-7.75 6.88-10 19.51-12.38 29.08A204.09 204.09 0 0 0 84 315zm119.54-3l-5.24 7.36a28.53 28.53 0 0 1 5.24-7.36z" fill="#25a9e0"/><path d="M142.8 318.39c-.81.6 4.46-23.34 17.6-23.83 8.46-.23 11.73 8.59 19.92 11 7.84 2 18.71-6 25.08-1.11 13.1 10.27-20.1 22.39-25.45 25.65" fill="#fff"/><path d="M192.15 352.48c-3.25-10.47 5-21.41 6-22.62l.4-.51 9.45-10.72c-.68-3.53 4-8 1-10.64-5.09-4.61-10 4.07-13.73 6.38a15.93 15.93 0 0 1-8.44 2.17 27.21 27.21 0 0 1-13.33-3c-4.24-2.27-6.7-6.07-10.42-8.91-4.23-3.23-8.43-1.63-12.56.86-6.4 3.84-7.62 11.25-10.15 17.64a33.35 33.35 0 0 1-11.9 14.94c-8.19 5.92-17.13 8.19-25.91 12.74-1 .51-6 2.78-3.88 4.85a24.85 24.85 0 0 0 12.38 6.8c7.39 1.68 16.3.64 26.47-3.09 1.12-.42 2.39-.92 3.79-1.49 8.65-3.42 20.47-8.1 29.94-6a16.58 16.58 0 0 1 6.5 3l1.15.9c5.46 4.26 13.71 10.69 21 12.35a13.28 13.28 0 0 0 4.38.33 8.16 8.16 0 0 0 3.39-1.17 6.9 6.9 0 0 0 1.34-1 6.84 6.84 0 0 0-2.68-1.41c-7.6-2.36-12.34-6.55-14.19-12.4z" fill="#fff"/><path d="M190.74 308.24c2.28.25 3.91 2.57 3.64 5.18l-2 18.19a4.51 4.51 0 0 1-4.67 4.28c-2.28-.24-3.91-2.57-3.63-5.19l2-18.17c.29-2.62 2.38-4.54 4.67-4.29z" fill="#a7aaab"/><path d="M187.65 312.71c.19-1.75 1.51-3 2.91-2.89a2.93 2.93 0 0 1 2.23 3.44l-2 18.18a2.93 2.93 0 0 1-2.92 2.88c-1.4-.16-2.4-1.7-2.22-3.44z" fill="#fff"/><path d="M187.58 326.9a1.11 1.11 0 1 0 2.21.24 1.11 1.11 0 0 0-2.21-.24zm.53-4.9a1.12 1.12 0 1 0 1.23-1 1.13 1.13 0 0 0-1.23 1zm.57-5.2a1.11 1.11 0 0 0 1 1.23 1.11 1.11 0 1 0-1-1.23zm-11.82-9.16c2.18.72 3.28 3.34 2.45 5.84l-5.75 17.36a4.52 4.52 0 0 1-5.46 3.22c-2.19-.74-3.28-3.36-2.47-5.85l5.77-17.35c.82-2.51 3.27-3.95 5.46-3.22z" fill="#a7aaab"/><path d="M172.9 311.35c.55-1.66 2.11-2.65 3.45-2.19s2 2.16 1.46 3.82l-5.76 17.36a3 3 0 0 1-3.45 2.21c-1.35-.45-2-2.17-1.45-3.84z" fill="#fff"/><path d="M169.84 325.24a1.12 1.12 0 1 0 1.41-.71 1.1 1.1 0 0 0-1.41.71zm1.56-4.73a1.12 1.12 0 1 0 1.42-.7 1.14 1.14 0 0 0-1.42.7zm1.6-4.93a1.12 1.12 0 1 0 2.12.7 1.12 1.12 0 1 0-2.12-.7z" fill="#a7aaab"/><path d="M207.14 359.78S188.5 355 199.77 336s22.42-47.3 36.07-45.09l-19.71-1.2L193.85 337l2.78 21.19z" fill="#25a9e0"/><path d="M172.84 300.94s-25.23-23.94-32.59.06c-2.29 7.53-3 15.29-4.86 22.9-1.47 6.05-4.2 11.86-9.43 15.52a40.29 40.29 0 0 1-6.44 3.54c-4.51 2-9.34 3.21-14.08 4.57-3.18.91-8 2.54-7.44 6.71 0 0 .68 5.16 12.46 5.16l15-7.6 14.82-11.05z" fill="#fff"/><path d="M133.21 326l-10.75-2.39 5.8-27.91 10.33 2.61z" fill="#fff"/><path d="M133.44 325.21l-10-2.21 5.5-26.39 9.62 2.41z" fill="#fff"/><path d="M156.28 304.55c2.29.24 3.93 2.58 3.63 5.2l-2 18.17a4.49 4.49 0 0 1-4.66 4.29c-2.28-.25-3.91-2.58-3.64-5.19l2-18.18a4.51 4.51 0 0 1 4.66-4.29z" fill="#a7aaab"/><path d="M153.2 309c.19-1.73 1.51-3 2.9-2.88s2.42 1.7 2.24 3.43l-2 18.19a2.93 2.93 0 0 1-2.91 2.89c-1.4-.16-2.41-1.71-2.23-3.45z" fill="#fff"/><path d="M153.13 323.22a1.11 1.11 0 1 0 1.23-1 1.09 1.09 0 0 0-1.23 1zm.53-4.93a1.11 1.11 0 1 0 2.21.25 1.11 1.11 0 1 0-2.21-.25zm.56-5.17a1.12 1.12 0 1 0 1.23-1 1.11 1.11 0 0 0-1.23 1z" fill="#a7aaab"/><path d="M125.77 317.06l198.46 37.52 56.76 8.25m-255.03-48.24l198.08 37.87 49.84 6.5" fill="none" opacity=".28" stroke="#fff" stroke-width=".23"/><path d="M126.34 312.55l197.41 37.63 44.62 4.34" fill="none" opacity=".28" stroke="#fff" stroke-width=".23"/><path d="M127.44 310.42l198.2 38.28 34.03 1.74" fill="none" opacity=".28" stroke="#fff" stroke-width=".23"/><path d="M352.11 346.51l-28.57.08-195.76-38.72" fill="none" opacity=".28" stroke="#fff" stroke-width=".23"/><path d="M345.81 343.62l-21.9 1.25-194.55-39.52" fill="none" opacity=".28" stroke="#fff" stroke-width=".23"/><path d="M129.69 318a.7.7 0 0 0 .75.65.7.7 0 0 0-.08-1.39.71.71 0 0 0-.67.74zm.56-2.45a.69.69 0 1 0 1.38-.08.69.69 0 1 0-1.38.08zm.44-1.98a.69.69 0 1 0 1.38-.08.69.69 0 1 0-1.38.08zm.48-2.39a.7.7 0 0 0 1.39-.08.7.7 0 0 0-.74-.65.69.69 0 0 0-.65.73zm.48-2.4a.71.71 0 0 0 .74.65.69.69 0 1 0-.74-.65zm.47-2.68a.7.7 0 0 0 .74.65.7.7 0 0 0-.08-1.39.72.72 0 0 0-.66.74z" fill="#5a5b5d"/><circle cx="121.82" cy="353.69" fill="#231f20" r="3.63"/><circle cx="132.19" cy="352.89" fill="#231f20" r="3.63"/><circle cx="141.66" cy="349.86" fill="#231f20" r="3.63"/><path d="M265.67 363.44c-2.72 3.81-7.57 10.38-12.77 9.9-10-.9 2.49-13.17 6-16.86a129 129 0 0 1-16.29 10.15 37.92 37.92 0 0 1-9.51 3.73c-2.42.46-8.24.95-8.69-2.51s5.62-6.85 8.11-8.26a33.66 33.66 0 0 1 23.45-3.6c-5.69-1.34-11.36-2.81-16.9-4.62a79.8 79.8 0 0 1-10.33-4c-2.56-1.24-6.45-2.95-7.41-6-2.7-8.52 15.65-3.14 18.52-2.31 11.27 3.26 18.67 8.38 27.83 15.39l.65.5c3.7-4.82 15.06-20.39 22.17-16.49 9.05 5.4-14.33 20.51-20.79 20.6z" fill="#e63d31"/><circle cx="467.02" cy="404.02" opacity=".2" r="23.58" transform="rotate(-45 467.027 404.011)"/><circle cx="470.25" cy="400.48" fill="#fff" r="23.99"/><g clip-path="url(#a)"><path d="M439.38 378.62h81.84v42.97h-81.84z" fill="none" stroke="#000" stroke-width=".22"/><path d="M439.38 418.14h81.84v3.45h-81.84z" fill="#e7262b"/><path d="M439.38 414.68h81.84v3.46h-81.84z" fill="#fff"/><path d="M439.38 411.23h81.84v3.45h-81.84z" fill="#e7262b"/><path d="M439.38 407.77h81.84v3.46h-81.84z" fill="#fff"/><path d="M439.38 404.53h81.84v3.24h-81.84z" fill="#e7262b"/><path d="M439.38 401.29h81.84v3.24h-81.84z" fill="#fff"/><path d="M439.38 398.05h81.84v3.24h-81.84z" fill="#e7262b"/><path d="M439.38 394.81h81.84v3.24h-81.84z" fill="#fff"/><path d="M439.38 391.58h81.84v3.24h-81.84z" fill="#e7262b"/><path d="M439.38 388.34h81.84v3.24h-81.84z" fill="#fff"/><path d="M439.38 385.1h81.84v3.24h-81.84z" fill="#e7262b"/><path d="M439.38 381.86h81.84v3.24h-81.84z" fill="#fff"/><path d="M439.38 378.62h81.84v3.24h-81.84z" fill="#e7262b"/><path d="M439.38 378.62h32.82v22.67h-32.82z" fill="#2e8fcd"/><path d="M440.75 398.62l.95-.1.36-.93.39.92.95.07-.71.67.23 1-.83-.5-.81.53.2-1zm5.4 0l1-.1.36-.93.39.92.95.07-.71.67.23 1-.83-.5-.82.53.21-1zm5.61 0l.95-.1.37-.93.38.92 1 .07-.72.67.23 1-.83-.5-.81.53.2-1zm5.4 0l.95-.1.36-.93.39.92 1 .07-.72.67.23 1-.83-.5-.81.53.2-1zm5.4 0l.95-.1.36-.93.39.92.95.07-.71.67.23 1-.83-.5-.81.53.2-1zm5.61 0l.95-.1.37-.93.38.92 1 .07-.71.67.22 1-.83-.5-.81.53.2-1zm-24.62-2.16l1-.1.36-.93.39.92.95.07-.71.67.22 1-.82-.5-.82.53.2-1zm-2.8-2.38l.95-.1.36-.93.39.92.95.08-.71.66.23 1-.83-.51-.81.53.2-1zm2.8-2.16l1-.1.36-.92.39.91.95.08-.71.66.22 1-.82-.5-.82.52.2-1zm-2.8-2.37l.95-.1.36-.93.39.92.95.07-.71.67.23 1-.83-.5-.81.53.2-1zm2.8-2.16l1-.1.36-.93.39.92.95.07-.71.67.22 1-.82-.5-.82.53.2-1zm-2.8-2.39l.95-.1.36-.92.39.91.95.08-.71.66.23 1-.83-.5-.81.52.2-1zm2.8-2.15l1-.1.36-.92.39.91.95.08-.71.67.22 1-.82-.5-.82.52.2-1zm-2.8-2.37l.95-.1.36-.93.39.92.95.07-.71.67.23 1-.83-.5-.81.53.2-1zm8.25 15.98l.95-.1.37-.93.39.92.95.07-.71.67.22 1-.82-.5-.82.53.2-1zm-2.85-2.38l1-.1.36-.93.39.92.95.08-.71.66.23 1-.83-.51-.82.53.21-1zm2.85-2.16l.95-.1.37-.92.39.91.95.08-.71.66.22 1-.82-.5-.82.52.2-1zm-2.85-2.37l1-.1.36-.93.39.92.95.07-.71.67.23 1-.83-.5-.82.53.21-1zm2.85-2.16l.95-.1.37-.93.39.92.95.07-.71.67.22 1-.82-.5-.82.53.2-1zm-2.85-2.39l1-.1.36-.92.39.91.95.08-.71.66.23 1-.83-.5-.82.52.21-1zm2.85-2.15l.95-.1.37-.92.39.91.95.08-.71.67.22 1-.82-.5-.82.52.2-1zm-2.85-2.37l1-.1.36-.93.39.92.95.07-.71.67.23 1-.83-.5-.82.53.21-1zm8.2 15.98l.95-.1.37-.93.38.92 1 .07-.71.67.22 1-.83-.5-.81.53.2-1zm-2.59-2.38l.95-.1.37-.93.38.92 1 .08-.72.66.23 1-.83-.51-.81.53.2-1zm10.8 0l.95-.1.36-.93.39.92.95.08-.71.66.23 1-.83-.51-.81.53.2-1zm-5.4 0l.95-.1.36-.93.39.92 1 .08-.72.66.23 1-.83-.51-.81.53.2-1zm8.2 2.38l1-.1.36-.93.39.92.95.07-.71.67.23 1-.83-.5-.82.53.2-1zm-5.36 0l.95-.1.36-.93.39.92.95.07-.71.67.23 1-.83-.5-.82.53.21-1zm-8.24-15.98l.95-.1.37-.93.38.92 1 .07-.72.67.23 1-.83-.5-.81.53.2-1zm2.59 2.37l.95-.1.37-.92.38.91 1 .08-.71.67.22 1-.83-.5-.81.52.2-1zm-2.59 2.15l.95-.1.37-.92.38.91 1 .08-.72.66.23 1-.83-.5-.81.52.2-1zm2.59 2.39l.95-.1.37-.93.38.92 1 .07-.71.67.22 1-.83-.5-.81.53.2-1zm-2.59 2.16l.95-.1.37-.93.38.92 1 .07-.72.67.23 1-.83-.5-.81.53.2-1zm2.59 2.37l.95-.1.37-.92.38.91 1 .08-.71.66.22 1-.83-.5-.81.52.2-1zm13.82 2.16l.95-.1.37-.93.38.92 1 .08-.71.66.22 1-.83-.51-.81.53.2-1zm-11.01-4.53l.95-.1.36-.93.39.92 1 .07-.72.67.23 1-.83-.5-.81.53.2-1zm0-9.07l.95-.1.36-.93.39.92 1 .07-.72.67.23 1-.83-.5-.81.53.2-1zm0 4.52l.95-.1.36-.92.39.91 1 .08-.72.66.23 1-.83-.5-.81.52.2-1zm8.2 6.92l1-.1.36-.92.39.91.95.08-.71.66.23 1-.83-.5-.82.52.2-1zm-5.36 0l.95-.1.36-.92.39.91.95.08-.71.66.23 1-.83-.5-.82.52.21-1zm0-9.07l.95-.1.36-.92.39.91.95.08-.71.67.23 1-.83-.5-.82.52.21-1zm0 4.54l.95-.1.36-.93.39.92.95.07-.71.67.23 1-.83-.5-.82.53.21-1zm8.17 2.16l.95-.1.37-.93.38.92 1 .07-.71.67.22 1-.83-.5-.81.53.2-1zm-5.61 0l.95-.1.36-.93.39.92.95.07-.71.67.23 1-.83-.5-.81.53.2-1zm0-9.07l.95-.1.36-.93.39.92.95.07-.71.67.23 1-.83-.5-.81.53.2-1zm0 4.52l.95-.1.36-.92.39.91.95.08-.71.66.23 1-.83-.5-.81.52.2-1zm5.61-4.52l.95-.1.37-.93.38.92 1 .07-.71.67.22 1-.83-.5-.81.53.2-1zm-2.81 2.37l1-.1.36-.92.39.91.95.08-.71.67.23 1-.83-.5-.82.52.2-1zm2.81 2.15l.95-.1.37-.92.38.91 1 .08-.71.66.22 1-.83-.5-.81.52.2-1zm-2.81 2.39l1-.1.36-.93.39.92.95.07-.71.67.23 1-.83-.5-.82.53.2-1z" fill="#fff"/></g><path d="M112.44 382.48a7.38 7.38 0 0 0-4.8-1.58h-1.49a7 7 0 0 0-5.32 2 6.9 6.9 0 0 0-1.83 4.96v1.87s0 .93.06 1.55 0 1.56 0 2.71v1.77c-.67-1.09-1.3-2.14-1.9-3.14q-1.32-2.19-2.34-3.79c-.79-1.26-1.08-1.76-1.18-1.94l-.09-.15c-.38-.64-.76-1.23-1.14-1.78a10.54 10.54 0 0 0-1.93-2.11 9.19 9.19 0 0 0-2.87-1.59 11.27 11.27 0 0 0-3.6-.53c-3.25 0-5.66 1-7.16 3a10 10 0 0 0-1.84 6.2v12.27c-1.43-3.69-2.93-7.83-4.47-12.36a55.52 55.52 0 0 0-1.24-3.28 11.57 11.57 0 0 0-2-3.2A8.2 8.2 0 0 0 64 381a11.81 11.81 0 0 0-3.86-.56 14.22 14.22 0 0 0-3.74.42 8.14 8.14 0 0 0-3.66 2.14 11.08 11.08 0 0 0-2.22 3.31c-.46 1-.94 2.23-1.46 3.69-.29.8-.79 2.16-1.5 4.07l-2.4 6.44q-.75 2.06-1.53 4.14a12.5 12.5 0 0 0-1.35-1.59 14.21 14.21 0 0 0-1.23-1.06 6.58 6.58 0 0 0 3-2.19 8.4 8.4 0 0 0 1.73-5.19 13.12 13.12 0 0 0-1.12-5.11 13.76 13.76 0 0 0-3.61-4.9 18.47 18.47 0 0 0-5.9-3.39 24.41 24.41 0 0 0-8.34-1.22 27.87 27.87 0 0 0-6.84.82 17.47 17.47 0 0 0-6.16 2.92 14.79 14.79 0 0 0-4.35 5.35 16.74 16.74 0 0 0-1.57 7.4 15.81 15.81 0 0 0 .69 4.7 11.84 11.84 0 0 0 2.45 4.3c-2.62 1.16-4.18 3.78-4.18 7.3a11.82 11.82 0 0 0 1.4 5.34 15 15 0 0 0 4 4.81 21.13 21.13 0 0 0 6.08 3.35 24.45 24.45 0 0 0 8.43 1.34 28.09 28.09 0 0 0 7.83-1 19.52 19.52 0 0 0 5.41-2.5 6.31 6.31 0 0 0 1.13 1.06 8.7 8.7 0 0 0 5.22 1.36 12.93 12.93 0 0 0 2.91-.28A7.23 7.23 0 0 0 52 425a6.75 6.75 0 0 0 2-2.35 13.37 13.37 0 0 0 .69-1.7l1.6-4.72h6.3c0 .09.07.18.11.28.24.62.48 1.25.7 1.88s.51 1.37.76 2 .49 1.22.65 1.57a9.4 9.4 0 0 0 .93 1.65 6.37 6.37 0 0 0 2.26 1.91 8.5 8.5 0 0 0 2.45.82 15.19 15.19 0 0 0 2.74.21 11.89 11.89 0 0 0 3.09-.34 7.72 7.72 0 0 0 1.95-.78 7.35 7.35 0 0 0 4 1.12h1a8.44 8.44 0 0 0 4.66-1.3 6.53 6.53 0 0 0 2.91-5.62v-7.22l3 5.08c.71 1.2 1.22 2.05 1.47 2.45a17.74 17.74 0 0 0 3.38 4.26 9.56 9.56 0 0 0 6.63 2.35c3.34 0 5.84-.95 7.42-2.82a9.72 9.72 0 0 0 2.14-6.52v-29.29a6.65 6.65 0 0 0-2.4-5.44zM424.66 394a20.71 20.71 0 0 0-4.54-7.6 19.57 19.57 0 0 0-7.3-4.78 25.76 25.76 0 0 0-9.07-1.54 30.77 30.77 0 0 0-6.24.59 20.42 20.42 0 0 0-5.52 2 18.52 18.52 0 0 0-4.56 3.45 25.24 25.24 0 0 0-2.64 3.25 16.18 16.18 0 0 0-3.54-4.38 20.1 20.1 0 0 0-6.53-3.69 26.77 26.77 0 0 0-8.85-1.35 24.44 24.44 0 0 0-11 2.41 19.16 19.16 0 0 0-7.35 6.76 13.89 13.89 0 0 0-3.38-4.44 18.47 18.47 0 0 0-5.9-3.39 24.45 24.45 0 0 0-8.34-1.28 27.87 27.87 0 0 0-6.84.82 17.39 17.39 0 0 0-6.16 2.92 15.07 15.07 0 0 0-2.13 2 6.65 6.65 0 0 0-1.45-3 6.74 6.74 0 0 0-5.28-2.15H306c-3.7 0-6.37 2-7.16 5.05-.25-.25-.49-.5-.76-.73a20 20 0 0 0-6.53-3.69 26.73 26.73 0 0 0-8.85-1.35 24.44 24.44 0 0 0-11 2.41 19.1 19.1 0 0 0-7.27 6.65v-1a6.65 6.65 0 0 0-2.33-5.44 7.36 7.36 0 0 0-4.8-1.58h-1.5a7 7 0 0 0-5.32 2 6.9 6.9 0 0 0-1.86 4.94v3.42c0 .62 0 1.56.05 2.71v1.77l-1.9-3.14q-1.32-2.19-2.33-3.79c-.8-1.26-1.08-1.76-1.18-1.94l-.09-.15c-.38-.64-.76-1.23-1.15-1.78a10.21 10.21 0 0 0-1.92-2.11 9.13 9.13 0 0 0-2.88-1.59 11.25 11.25 0 0 0-3.59-.53c-3.26 0-5.67 1-7.16 3a10 10 0 0 0-1.85 6.2v12.27c-1.43-3.69-2.93-7.83-4.47-12.36-.44-1.27-.84-2.35-1.23-3.28a11.81 11.81 0 0 0-2-3.2 8.17 8.17 0 0 0-3.48-2.31 11.71 11.71 0 0 0-3.85-.56 14.3 14.3 0 0 0-3.75.42 8.25 8.25 0 0 0-3.69 2.14 11.27 11.27 0 0 0-2.22 3.31c-.46 1-.94 2.23-1.45 3.69l-1.51 4.07-.83 2.88v-.25a17 17 0 0 0-1.43-7.07A14.09 14.09 0 0 0 190 384a20.9 20.9 0 0 0-7.22-3.14 39.94 39.94 0 0 0-9.37-1c-3.18 0-5.65.07-7.57.21a20.62 20.62 0 0 0-5.23.92 9.1 9.1 0 0 0-2.11 1.09 6.63 6.63 0 0 0-4.3-1.39h-5.92l-6.34-.08c-2.53 0-5.59-.09-9.13-.16h-.46a7.06 7.06 0 0 0-5.2 1.85 6.69 6.69 0 0 0-1.71 4.79v2.62s0 2.73.09 4.36.06 3.26.08 5 0 3.22 0 4.53 0 2.78-.06 4.47-.06 3.44-.08 5.08 0 3-.08 4.25-.06 2.14-.06 2.49a6.08 6.08 0 0 0 4 6.07 14.16 14.16 0 0 0 4.69.63 10.85 10.85 0 0 0 5-.9 6.07 6.07 0 0 0 3.27-5.74v-7h10.87a9 9 0 0 0 2.35-.29v1.55c0 3.06-.06 4.9-.06 5.53a8.13 8.13 0 0 0 .3 2.21 5.93 5.93 0 0 0 2 3 7.25 7.25 0 0 0 3.08 1.42 12 12 0 0 0 2.63.26h.81a14.14 14.14 0 0 0 5-.93 6 6 0 0 0 3.67-5.7v-7.42h.35a1.23 1.23 0 0 1 .25.07 1.57 1.57 0 0 1 .22.33 10.89 10.89 0 0 1 .75 2.14 25.27 25.27 0 0 0 1.82 4.94 12.94 12.94 0 0 0 2.92 3.83 10.5 10.5 0 0 0 4.36 2.28 18 18 0 0 0 4.49.53 11.84 11.84 0 0 0 4.47-.73 10.65 10.65 0 0 0 3.46.51 12.87 12.87 0 0 0 2.91-.28 7.17 7.17 0 0 0 2.83-1.31 6.54 6.54 0 0 0 2-2.35 12 12 0 0 0 .69-1.7l1.6-4.72h6.31c0 .09.07.18.1.28.24.62.48 1.25.71 1.88s.5 1.37.76 2 .48 1.22.64 1.57a9.43 9.43 0 0 0 .94 1.65 6.29 6.29 0 0 0 2.24 1.94 8.33 8.33 0 0 0 2.44.82 15.27 15.27 0 0 0 2.74.21 11.84 11.84 0 0 0 3.09-.34 7.57 7.57 0 0 0 2-.78 7.37 7.37 0 0 0 4 1.12h1a8.44 8.44 0 0 0 4.66-1.3 6.51 6.51 0 0 0 2.92-5.62v-7.22l3 5.08c.71 1.2 1.22 2.05 1.47 2.45a17.72 17.72 0 0 0 3.37 4.26 9.59 9.59 0 0 0 6.64 2.35c3.33 0 5.83-.95 7.42-2.82a9 9 0 0 0 2-4.8 18.31 18.31 0 0 0 1.33 1.69 20 20 0 0 0 7.28 5.17 25.14 25.14 0 0 0 9.86 1.8 27.27 27.27 0 0 0 8.66-1.27 21.82 21.82 0 0 0 6.37-3.29c.36-.27.68-.56 1-.85a7.18 7.18 0 0 0 1 1.88 6.78 6.78 0 0 0 5.62 2.43h2.26a7.18 7.18 0 0 0 5.12-1.93 6.36 6.36 0 0 0 1.58-2.48 12.19 12.19 0 0 0 .92.82 21.13 21.13 0 0 0 6.08 3.35 24.45 24.45 0 0 0 8.43 1.34 28.14 28.14 0 0 0 7.83-1 19 19 0 0 0 6.05-2.92 13.21 13.21 0 0 0 3.9-4.56c.38.52.77 1 1.2 1.51a19.83 19.83 0 0 0 7.28 5.17 25.14 25.14 0 0 0 9.86 1.8 27.27 27.27 0 0 0 8.66-1.27A22 22 0 0 0 381 423a15.44 15.44 0 0 0 4-4.44c.4.59.83 1.15 1.28 1.69a20.24 20.24 0 0 0 7.26 5.39 23.74 23.74 0 0 0 9.78 1.92 24.27 24.27 0 0 0 10.28-2 20.28 20.28 0 0 0 7.25-5.53 22.07 22.07 0 0 0 4.07-7.79 30 30 0 0 0 1.23-8.57 29.64 29.64 0 0 0-1.49-9.67z" opacity=".2"/><path d="M116.23 378.69a7.38 7.38 0 0 0-4.8-1.58h-1.49a7.08 7.08 0 0 0-5.33 2 6.9 6.9 0 0 0-1.86 4.94v1.87s0 .93.06 1.55 0 1.56 0 2.71v1.77c-.67-1.09-1.3-2.13-1.9-3.13-.89-1.47-1.66-2.73-2.34-3.8-.8-1.26-1.08-1.76-1.18-1.94l.01-.08c-.38-.64-.76-1.23-1.14-1.78a10.82 10.82 0 0 0-1.93-2.11 9.17 9.17 0 0 0-2.87-1.58 11 11 0 0 0-3.6-.54c-3.25 0-5.66 1-7.16 3a10 10 0 0 0-1.85 6.2v12.27c-1.42-3.69-2.92-7.83-4.47-12.35-.44-1.28-.84-2.35-1.23-3.28a11.63 11.63 0 0 0-2-3.21 8.2 8.2 0 0 0-3.47-2.31 11.81 11.81 0 0 0-3.86-.56 14.8 14.8 0 0 0-3.75.42 8.16 8.16 0 0 0-3.68 2.14 11 11 0 0 0-2.22 3.32c-.46 1-1 2.22-1.46 3.68-.29.81-.79 2.16-1.5 4.08L49 396.75c-.5 1.36-1 2.74-1.53 4.14a12.58 12.58 0 0 0-1.35-1.6 14.21 14.21 0 0 0-1.23-1.06 6.63 6.63 0 0 0 3-2.18 8.45 8.45 0 0 0 1.73-5.2 13.12 13.12 0 0 0-1.12-5.11 13.76 13.76 0 0 0-3.61-4.9 18.47 18.47 0 0 0-5.9-3.39 24.45 24.45 0 0 0-8.34-1.28 27.39 27.39 0 0 0-6.84.83 17.05 17.05 0 0 0-6.16 2.92 14.66 14.66 0 0 0-4.35 5.34 16.74 16.74 0 0 0-1.57 7.4 15.81 15.81 0 0 0 .69 4.7 11.84 11.84 0 0 0 2.45 4.3c-2.62 1.16-4.19 3.78-4.19 7.3A11.84 11.84 0 0 0 12 414.3a15.12 15.12 0 0 0 4 4.82 21.11 21.11 0 0 0 6.08 3.34 24.45 24.45 0 0 0 8.43 1.34 27.77 27.77 0 0 0 7.83-1 19.52 19.52 0 0 0 5.37-2.46 6 6 0 0 0 1.13 1.06 8.63 8.63 0 0 0 5.22 1.36 12.93 12.93 0 0 0 2.91-.28 7.36 7.36 0 0 0 2.83-1.3 6.87 6.87 0 0 0 2-2.36 13.37 13.37 0 0 0 .69-1.7l1.6-4.71h6.3c0 .08.07.17.1.27.25.62.48 1.25.71 1.88s.51 1.37.76 2 .49 1.21.65 1.56a9.05 9.05 0 0 0 .93 1.65 6.37 6.37 0 0 0 2.24 1.94 8.54 8.54 0 0 0 2.44.82 15.39 15.39 0 0 0 2.75.21 12.38 12.38 0 0 0 3.09-.33 8.12 8.12 0 0 0 2-.79 7.35 7.35 0 0 0 4 1.12h1a8.44 8.44 0 0 0 4.66-1.3 6.52 6.52 0 0 0 2.91-5.62v-7.22c.22.39 2.3 3.9 3 5.08s1.22 2.05 1.47 2.45a17.74 17.74 0 0 0 3.38 4.26 9.56 9.56 0 0 0 6.63 2.35c3.34 0 5.83-.95 7.42-2.82a9.72 9.72 0 0 0 2.14-6.52v-29.27a6.65 6.65 0 0 0-2.44-5.44zm312.22 11.51a20.85 20.85 0 0 0-4.54-7.6 19.5 19.5 0 0 0-7.3-4.77 25.54 25.54 0 0 0-9.07-1.55 30.77 30.77 0 0 0-6.24.59 20.42 20.42 0 0 0-5.52 2 18.52 18.52 0 0 0-4.56 3.45 25.24 25.24 0 0 0-2.64 3.25 16.22 16.22 0 0 0-3.55-4.38 20 20 0 0 0-6.52-3.69 26.78 26.78 0 0 0-8.85-1.34 24.54 24.54 0 0 0-11 2.4 19.09 19.09 0 0 0-7.35 6.76 14 14 0 0 0-3.38-4.44 18.47 18.47 0 0 0-5.9-3.39 24.47 24.47 0 0 0-8.35-1.28 27.37 27.37 0 0 0-6.83.83 17.05 17.05 0 0 0-6.16 2.92 13.52 13.52 0 0 0-2.13 2 6.35 6.35 0 0 0-6.73-5.1h-2.1c-3.69 0-6.37 2-7.16 5.05-.25-.24-.48-.49-.75-.73a20.1 20.1 0 0 0-6.53-3.69 26.78 26.78 0 0 0-8.85-1.34 24.57 24.57 0 0 0-11 2.4 19 19 0 0 0-7.27 6.65v-1a6.65 6.65 0 0 0-2.33-5.44 7.38 7.38 0 0 0-4.8-1.58h-1.49a7.07 7.07 0 0 0-5.32 2 6.9 6.9 0 0 0-1.87 4.94v1.87s0 .93.05 1.55 0 1.56 0 2.71v1.77c-.66-1.09-1.3-2.13-1.9-3.13-.88-1.47-1.66-2.73-2.33-3.8-.8-1.26-1.09-1.76-1.18-1.94l-.09-.15c-.38-.64-.77-1.23-1.15-1.78a10.77 10.77 0 0 0-1.92-2.11 9.11 9.11 0 0 0-2.88-1.58 11 11 0 0 0-3.6-.54c-3.25 0-5.66 1-7.15 3a10 10 0 0 0-1.85 6.2v12.27c-1.43-3.69-2.93-7.83-4.47-12.35-.44-1.28-.84-2.35-1.24-3.28a11.4 11.4 0 0 0-2-3.21 8.08 8.08 0 0 0-3.47-2.31 11.79 11.79 0 0 0-3.85-.56 14.74 14.74 0 0 0-3.75.42 8.2 8.2 0 0 0-3.69 2.14 11 11 0 0 0-2.22 3.32c-.46 1-.94 2.22-1.46 3.68-.29.81-.79 2.16-1.5 4.08l-1.07 2.89v-.26a17 17 0 0 0-1.44-7.07 14.05 14.05 0 0 0-4.69-5.64 20.9 20.9 0 0 0-7.22-3.14 40 40 0 0 0-9.37-1c-3.18 0-5.66.06-7.58.2a20.79 20.79 0 0 0-5.23.92 8.86 8.86 0 0 0-2.1 1.1 6.58 6.58 0 0 0-4.3-1.4h-5.92q-2.55 0-6.35-.08c-2.52 0-5.58-.09-9.12-.16h-.46a7.08 7.08 0 0 0-5.21 1.85 6.73 6.73 0 0 0-1.7 4.79v2.62s.05 2.74.09 4.37.06 3.25.08 4.95 0 3.22 0 4.53 0 2.78-.06 4.47-.06 3.44-.08 5.08 0 3-.08 4.25-.06 2.15-.06 2.49a6.06 6.06 0 0 0 4 6.07 14.1 14.1 0 0 0 4.68.63 10.9 10.9 0 0 0 5-.9 6.07 6.07 0 0 0 3.27-5.74v-7H157a9 9 0 0 0 2.35-.29v1.55c0 3.06-.06 4.9-.06 5.53a8.13 8.13 0 0 0 .3 2.21 5.87 5.87 0 0 0 2 3 7.14 7.14 0 0 0 3.08 1.42 11.39 11.39 0 0 0 2.62.26h.81a14.2 14.2 0 0 0 5-.93 6 6 0 0 0 3.67-5.7v-7.45l.35.05a1.23 1.23 0 0 1 .25.07 2.21 2.21 0 0 1 .22.33 10.89 10.89 0 0 1 .75 2.14 25 25 0 0 0 1.82 4.94 12.94 12.94 0 0 0 2.92 3.83 10.44 10.44 0 0 0 4.36 2.28 17.9 17.9 0 0 0 4.49.53 11.84 11.84 0 0 0 4.47-.73 10.65 10.65 0 0 0 3.46.51 12.87 12.87 0 0 0 2.91-.28 7.29 7.29 0 0 0 2.83-1.3 6.76 6.76 0 0 0 2-2.36 12 12 0 0 0 .69-1.7l1.6-4.71H216l.1.27c.24.62.48 1.25.71 1.88s.5 1.37.76 2 .48 1.21.64 1.56a9.08 9.08 0 0 0 .94 1.65 6.26 6.26 0 0 0 2.23 1.94 8.5 8.5 0 0 0 2.45.82 15.27 15.27 0 0 0 2.74.21 12.33 12.33 0 0 0 3.09-.33 8 8 0 0 0 2-.79 7.35 7.35 0 0 0 4 1.12h1a8.44 8.44 0 0 0 4.66-1.3 6.52 6.52 0 0 0 2.91-5.62v-7.22l3 5.08 1.47 2.45a18 18 0 0 0 3.38 4.26 9.57 9.57 0 0 0 6.64 2.35c3.33 0 5.83-.95 7.42-2.82a9.12 9.12 0 0 0 2-4.8 16.75 16.75 0 0 0 1.33 1.69 20 20 0 0 0 7.28 5.17 25.14 25.14 0 0 0 9.86 1.8 27.27 27.27 0 0 0 8.66-1.27 21.82 21.82 0 0 0 6.37-3.29c.36-.27.68-.56 1-.84a7.28 7.28 0 0 0 1 1.87 6.78 6.78 0 0 0 5.62 2.43h2.26a7.18 7.18 0 0 0 5.12-1.92 6.47 6.47 0 0 0 1.58-2.49c.29.28.59.56.92.83a21 21 0 0 0 6.08 3.34 24.45 24.45 0 0 0 8.43 1.34 27.77 27.77 0 0 0 7.83-1 18.83 18.83 0 0 0 6-2.92 13.21 13.21 0 0 0 3.9-4.56c.38.52.77 1 1.19 1.51a20 20 0 0 0 7.29 5.17 25.11 25.11 0 0 0 9.86 1.8 27.27 27.27 0 0 0 8.66-1.27 22 22 0 0 0 6.37-3.29 15.41 15.41 0 0 0 4-4.43c.4.58.83 1.14 1.28 1.68a20.24 20.24 0 0 0 7.26 5.39 23.67 23.67 0 0 0 9.78 1.92 24.34 24.34 0 0 0 10.27-2 20.37 20.37 0 0 0 7.26-5.54 22.15 22.15 0 0 0 4.07-7.79 30.41 30.41 0 0 0 1.23-8.57 29.64 29.64 0 0 0-1.45-9.68z" fill="#fdfcf4"/><g fill="#e53e31"><path d="M18.15 405.33a3.42 3.42 0 0 1 2 .55 7 7 0 0 1 1.43 1.4c.44.57.89 1.18 1.35 1.82a9.81 9.81 0 0 0 1.73 1.82 8.6 8.6 0 0 0 2.65 1.4 12.58 12.58 0 0 0 4.07.55c2.2 0 3.75-.31 4.63-.93a3 3 0 0 0 1.32-2.54 4.24 4.24 0 0 0-.36-1.81 3.47 3.47 0 0 0-1.46-1.44 15.91 15.91 0 0 0-3.08-1.32c-1.32-.44-3.09-.92-5.29-1.43a24.07 24.07 0 0 1-5.45-1.87 12.34 12.34 0 0 1-3.44-2.48 7.71 7.71 0 0 1-1.79-3 11.5 11.5 0 0 1-.49-3.42 12.47 12.47 0 0 1 1.12-5.5 10.48 10.48 0 0 1 3.09-3.8 12.83 12.83 0 0 1 4.62-2.18 23.44 23.44 0 0 1 5.76-.68 20.29 20.29 0 0 1 6.85 1 14.21 14.21 0 0 1 4.59 2.6 9.52 9.52 0 0 1 2.5 3.36 8.66 8.66 0 0 1 .77 3.42 4.09 4.09 0 0 1-.82 2.56c-.55.71-1.6 1.07-3.14 1.07a3.58 3.58 0 0 1-2.59-.85 5.48 5.48 0 0 1-1.32-2 13.1 13.1 0 0 0-1.07-2.09 5.45 5.45 0 0 0-1.41-1.46 5.76 5.76 0 0 0-2-.85 13.44 13.44 0 0 0-2.94-.28 6.76 6.76 0 0 0-4.44 1.24 4.23 4.23 0 0 0-1.54 3.43 6.57 6.57 0 0 0 .28 1.93 3.91 3.91 0 0 0 1.13 1.67 7.88 7.88 0 0 0 2.5 1.46 25.23 25.23 0 0 0 4.46 1.21 33.21 33.21 0 0 1 6.64 2 13.45 13.45 0 0 1 4 2.53 7.38 7.38 0 0 1 2 3.11 12.12 12.12 0 0 1 .53 3.58 9.37 9.37 0 0 1-.91 4.05 8.89 8.89 0 0 1-2.78 3.3 14.55 14.55 0 0 1-4.68 2.23 23.58 23.58 0 0 1-6.61.83 20.29 20.29 0 0 1-6.94-1.07 16.8 16.8 0 0 1-4.84-2.65 10.49 10.49 0 0 1-2.86-3.41A7.51 7.51 0 0 1 15 409q0-3.67 3.15-3.67zm40.47 2.75a2.41 2.41 0 0 0-1.46.33 1.87 1.87 0 0 0-.58.83l-2.2 6.49a7.15 7.15 0 0 1-.47 1.16 2.31 2.31 0 0 1-.71.85 3.05 3.05 0 0 1-1.18.53 9 9 0 0 1-1.93.16 4.82 4.82 0 0 1-2.7-.55 1.84 1.84 0 0 1-.77-1.6 4.23 4.23 0 0 1 .05-.63 6.85 6.85 0 0 1 .2-.77c.09-.31.22-.7.38-1.16s.4-1.05.69-1.78q1.05-2.76 2.4-6.45c.89-2.46 1.79-4.87 2.67-7.24s1.68-4.51 2.39-6.44 1.22-3.29 1.52-4.1a36 36 0 0 1 1.32-3.36 7 7 0 0 1 1.35-2.07 3.84 3.84 0 0 1 1.76-1A10 10 0 0 1 64 381a7.67 7.67 0 0 1 2.45.33 3.88 3.88 0 0 1 1.66 1.1 7.64 7.64 0 0 1 1.21 2c.35.83.72 1.83 1.13 3q2.48 7.27 4.76 13.14t3.79 9.88c.62 1.69 1.07 2.95 1.34 3.8a6.74 6.74 0 0 1 .42 2 2.92 2.92 0 0 1-.11.77 1.47 1.47 0 0 1-.53.72 3.08 3.08 0 0 1-1.15.52 8.32 8.32 0 0 1-2 .19 11.52 11.52 0 0 1-2-.13 4.78 4.78 0 0 1-1.21-.39 2.19 2.19 0 0 1-.74-.63 4.7 4.7 0 0 1-.5-.89c-.14-.33-.34-.79-.58-1.4s-.47-1.24-.71-1.9-.49-1.32-.74-2-.46-1.25-.61-1.76a1.75 1.75 0 0 0-.69-1.05 4.06 4.06 0 0 0-1.68-.22zm8.15-5.23c.51 0 .77-.24.77-.72a6 6 0 0 0-.38-1.62c-.26-.75-.68-1.9-1.27-3.44l-1.65-4.52c-.22-.66-.52-1-.88-1a.66.66 0 0 0-.55.28 1.73 1.73 0 0 0-.33.71c-.22.63-.43 1.22-.64 1.79s-.48 1.41-.85 2.51-.66 2-.88 2.67-.39 1.15-.5 1.51-.18.63-.22.77a2.28 2.28 0 0 0 0 .44c0 .41.27.61.82.61zM86 418.43a2.89 2.89 0 0 1-2-.71 2.46 2.46 0 0 1-.77-1.88v-29.73a5.84 5.84 0 0 1 1-3.58q1-1.26 3.72-1.26a6.92 6.92 0 0 1 2.2.3 4.83 4.83 0 0 1 1.52.83 6 6 0 0 1 1.12 1.23c.33.48.66 1 1 1.55.22.4.66 1.12 1.32 2.17s1.42 2.29 2.28 3.72 1.79 2.95 2.78 4.57 1.93 3.19 2.81 4.73l2 3.42c.52.88.91 1.57 1.19 2.06a7 7 0 0 0 .63 1c.15.18.28.28.38.28.26 0 .39-.23.39-.67s0-1.73-.11-3.77-.11-4.54-.11-7.51v-7.82c0-.66 0-1.2-.06-1.63s0-1 0-1.68a2.71 2.71 0 0 1 .67-1.95 2.94 2.94 0 0 1 2.2-.69h1.49a3.14 3.14 0 0 1 2.06.61 2.54 2.54 0 0 1 .74 2.09v29.29a5.54 5.54 0 0 1-1.1 3.72c-.73.86-2.11 1.29-4.13 1.29a5.36 5.36 0 0 1-3.74-1.24 13.14 13.14 0 0 1-2.53-3.22c-.3-.47-.79-1.3-1.49-2.47l-2.31-3.91-2.56-4.35c-.87-1.47-1.59-2.74-2.18-3.8-.84-1.51-1.5-2.72-2-3.64s-.81-1.62-1-2.12-.41-.82-.52-1a.48.48 0 0 0-.39-.25c-.18 0-.27.19-.27.55s0 1.55.08 3.42.08 4.24.08 7.1v12.33a2.21 2.21 0 0 1-.94 2 4.18 4.18 0 0 1-2.31.6zm57-13.6a1.55 1.55 0 0 0-1 .22 1 1 0 0 0-.22.72v10.35a1.88 1.88 0 0 1-.88 1.87 7.26 7.26 0 0 1-3 .44 10.57 10.57 0 0 1-3.24-.38c-.74-.26-1.11-.92-1.11-2 0-.33 0-1.11.06-2.36s.06-2.69.08-4.32.05-3.32.08-5 .06-3.25.06-4.57v-4.57c0-1.72 0-3.4-.08-5s-.07-3.06-.08-4.33 0-2.12 0-2.56a2.56 2.56 0 0 1 .52-1.81 3.34 3.34 0 0 1 2.4-.5c3.59.08 6.66.13 9.19.17l6.36.08h6a2.22 2.22 0 0 1 1.79.63 5.08 5.08 0 0 1 .52 2.84c0 2.35-.75 3.52-2.26 3.52h-1.21l-2.42-.05-3.11-.06-3.22-.05-2.78-.06h-1.74a1.85 1.85 0 0 0-1.35.42 2 2 0 0 0-.41 1.4v7.05a1.8 1.8 0 0 0 2 2h13a2.67 2.67 0 0 1 2.14.68 3.58 3.58 0 0 1 .55 2.23 4.57 4.57 0 0 1-.44 2.26c-.29.52-1 .77-2.2.77zm32-.44a3.92 3.92 0 0 0-2.15.41 1.58 1.58 0 0 0-.55 1.35v10.05a1.72 1.72 0 0 1-1 1.8 10.13 10.13 0 0 1-3.44.58 9.44 9.44 0 0 1-2.28-.13 3.22 3.22 0 0 1-1.3-.56 1.69 1.69 0 0 1-.58-.85 4 4 0 0 1-.13-1.05c0-.62 0-2.45.05-5.47s.06-7.12.06-12.25v-13.39a5.06 5.06 0 0 1 .41-2.17 3 3 0 0 1 1.82-1.35 16.74 16.74 0 0 1 4.1-.69q2.7-.19 7.27-.19a36.05 36.05 0 0 1 8.34.85 16.65 16.65 0 0 1 5.73 2.45 9.73 9.73 0 0 1 3.28 3.91 12.84 12.84 0 0 1 1 5.29 11.59 11.59 0 0 1-.66 4.21 8.12 8.12 0 0 1-1.68 2.73 8 8 0 0 1-2.2 1.62 20.11 20.11 0 0 1-2.2.94l-1.68.58q-.66.21-.66.6t.6.72a11.13 11.13 0 0 1 3.14 2.64 8.78 8.78 0 0 1 1.49 2.86 6.63 6.63 0 0 0 1.35 2.67 12 12 0 0 0 1.48 1.38c.46.35.86.67 1.19 1a1.7 1.7 0 0 1 .49 1.33 2.29 2.29 0 0 1-.93 1.65 5.52 5.52 0 0 1-3.53.82 14 14 0 0 1-3.41-.38 6.37 6.37 0 0 1-2.59-1.35 8.69 8.69 0 0 1-1.93-2.56 20.51 20.51 0 0 1-1.48-4.08 15.09 15.09 0 0 0-1.1-3 5.11 5.11 0 0 0-1.46-1.79 4.82 4.82 0 0 0-2-.86 16.07 16.07 0 0 0-2.86-.32zm12-10.79a5.25 5.25 0 0 0-2.25-4.46q-2.27-1.65-7.44-1.65a22.28 22.28 0 0 0-2.42.11 4.26 4.26 0 0 0-1.46.38 1.47 1.47 0 0 0-.72.83 4.67 4.67 0 0 0-.19 1.43v7.6a2.23 2.23 0 0 0 .16.88 1.38 1.38 0 0 0 .72.66 5 5 0 0 0 1.62.41 22.87 22.87 0 0 0 2.95.14c3.12 0 5.41-.58 6.88-1.76a5.57 5.57 0 0 0 2.15-4.57z"/><path d="M208.28 408.08a2.39 2.39 0 0 0-1.46.33 1.73 1.73 0 0 0-.58.83l-2.2 6.49a9.58 9.58 0 0 1-.47 1.16 2.44 2.44 0 0 1-.72.85 3 3 0 0 1-1.18.53 9 9 0 0 1-1.93.16 4.86 4.86 0 0 1-2.7-.55 1.84 1.84 0 0 1-.77-1.6 3.21 3.21 0 0 1 .06-.63 6.49 6.49 0 0 1 .19-.77c.09-.31.22-.7.39-1.16s.39-1.05.68-1.78q1-2.76 2.4-6.45t2.67-7.24l2.4-6.44c.71-1.93 1.22-3.29 1.51-4.1q.72-2 1.32-3.36a7 7 0 0 1 1.35-2.07 3.9 3.9 0 0 1 1.76-1 10 10 0 0 1 2.62-.28 7.67 7.67 0 0 1 2.45.33 3.91 3.91 0 0 1 1.65 1.1 7.39 7.39 0 0 1 1.21 2c.35.83.73 1.83 1.13 3q2.48 7.27 4.76 13.14t3.83 9.88c.62 1.69 1.07 2.95 1.35 3.8a7 7 0 0 1 .41 2 2.92 2.92 0 0 1-.11.77 1.44 1.44 0 0 1-.52.72 3.13 3.13 0 0 1-1.16.52 8.21 8.21 0 0 1-2 .19 11.32 11.32 0 0 1-2-.13 4.65 4.65 0 0 1-1.21-.39 2.23 2.23 0 0 1-.75-.63 4.68 4.68 0 0 1-.49-.89c-.15-.33-.34-.79-.58-1.4s-.48-1.24-.72-1.9-.48-1.32-.74-2-.46-1.25-.61-1.76a1.79 1.79 0 0 0-.68-1.05 4.12 4.12 0 0 0-1.68-.22zm8.15-5.23c.51 0 .77-.24.77-.72a5.76 5.76 0 0 0-.39-1.62c-.26-.75-.68-1.9-1.27-3.44l-1.65-4.52c-.22-.66-.51-1-.88-1a.67.67 0 0 0-.55.28 1.73 1.73 0 0 0-.33.71l-.63 1.79c-.2.57-.49 1.41-.86 2.51s-.66 2-.88 2.67-.38 1.15-.49 1.51-.19.63-.22.77a1.72 1.72 0 0 0-.06.44c0 .41.28.61.83.61zm19.21 15.58a2.93 2.93 0 0 1-2-.71 2.46 2.46 0 0 1-.77-1.88v-29.73a5.77 5.77 0 0 1 1-3.58c.64-.84 1.88-1.26 3.71-1.26a7 7 0 0 1 2.21.3 4.78 4.78 0 0 1 1.51.83 6.06 6.06 0 0 1 1.13 1.23c.33.48.66 1 1 1.55.22.4.66 1.12 1.32 2.17s1.42 2.29 2.29 3.72 1.79 2.95 2.78 4.57 1.92 3.19 2.81 4.73 1.46 2.54 2 3.42.91 1.57 1.18 2.06a9.32 9.32 0 0 0 .63 1c.15.18.28.28.39.28s.39-.23.39-.67 0-1.73-.12-3.77-.11-4.54-.11-7.51v-5.07c0-1.18 0-2.09-.06-2.75s0-1.2-.05-1.63 0-1 0-1.68a2.71 2.71 0 0 1 .66-1.95 3 3 0 0 1 2.2-.69h1.49a3.12 3.12 0 0 1 2.06.61 2.54 2.54 0 0 1 .75 2.09v29.29a5.6 5.6 0 0 1-1.1 3.72c-.74.86-2.11 1.29-4.13 1.29a5.39 5.39 0 0 1-3.75-1.24 13.14 13.14 0 0 1-2.53-3.22c-.29-.47-.79-1.3-1.49-2.47s-1.47-2.48-2.31-3.91-1.7-2.89-2.56-4.35-1.59-2.74-2.17-3.8c-.85-1.51-1.5-2.72-2-3.64s-.81-1.62-1-2.12a9.29 9.29 0 0 0-.52-1 .48.48 0 0 0-.38-.25c-.19 0-.28.19-.28.55s0 1.55.08 3.42.09 4.24.09 7.1v12.33a2.21 2.21 0 0 1-.93 2 4.24 4.24 0 0 1-2.32.6zm63.98-12.66a3.87 3.87 0 0 1 2.48.71 3.12 3.12 0 0 1 .9 2.52 7.23 7.23 0 0 1-1 3.38 10.91 10.91 0 0 1-3 3.42 17.54 17.54 0 0 1-5.12 2.61 22.58 22.58 0 0 1-7.27 1.05 20.89 20.89 0 0 1-8.21-1.46 15.52 15.52 0 0 1-5.73-4 16.61 16.61 0 0 1-3.39-6.19 27.13 27.13 0 0 1-1.1-7.9 23.85 23.85 0 0 1 .61-5.48 20.25 20.25 0 0 1 2-5.15 15.73 15.73 0 0 1 6.64-6.85 20 20 0 0 1 9-2 22.38 22.38 0 0 1 7.41 1.1 15.77 15.77 0 0 1 5.16 2.87 11.46 11.46 0 0 1 3 3.91 10.52 10.52 0 0 1 1 4.3 4.28 4.28 0 0 1-.94 2.86 3.53 3.53 0 0 1-2.86 1.1 3.72 3.72 0 0 1-2.89-1.1 12.28 12.28 0 0 1-1.9-2.81c-.37-.69-.76-1.35-1.16-2a6.71 6.71 0 0 0-1.43-1.57 6 6 0 0 0-2-1 10 10 0 0 0-2.89-.36 9.27 9.27 0 0 0-4.57 1 9.7 9.7 0 0 0-3.19 3.09 10.78 10.78 0 0 0-1.46 3.38 19.19 19.19 0 0 0-.58 5q0 6 2.67 9a9.24 9.24 0 0 0 7.29 3 12.75 12.75 0 0 0 3.75-.47 9.15 9.15 0 0 0 2.53-1.21A9.27 9.27 0 0 0 295 409c.45-.55.9-1.08 1.34-1.57a6.31 6.31 0 0 1 1.41-1.21 3.31 3.31 0 0 1 1.87-.45zm9.64 12.61a2.7 2.7 0 0 1-2.23-.8 3.24 3.24 0 0 1-.64-2.07v-.82c0-.44 0-1.16.06-2.15s0-2.34 0-4.05.05-3.88.09-6.52q0-7.55.05-11.84v-6.28c0-1.79 1-2.69 3.08-2.69h2.1a2.61 2.61 0 0 1 2 .68 2.93 2.93 0 0 1 .61 2v31.4a3.29 3.29 0 0 1-.74 2.42 2.94 2.94 0 0 1-2.12.72zm12-13.05a3.44 3.44 0 0 1 2 .55 7 7 0 0 1 1.43 1.4c.44.57.89 1.18 1.35 1.82a9.49 9.49 0 0 0 1.73 1.82 8.6 8.6 0 0 0 2.65 1.4 12.58 12.58 0 0 0 4.07.55c2.2 0 3.74-.31 4.63-.93a3 3 0 0 0 1.32-2.54 4.24 4.24 0 0 0-.36-1.81 3.53 3.53 0 0 0-1.46-1.44 15.91 15.91 0 0 0-3.08-1.32q-2-.66-5.29-1.43a24.07 24.07 0 0 1-5.45-1.87 12.34 12.34 0 0 1-3.44-2.48 7.71 7.71 0 0 1-1.79-3 11.5 11.5 0 0 1-.5-3.42 12.47 12.47 0 0 1 1.13-5.5 10.38 10.38 0 0 1 3.09-3.8 12.83 12.83 0 0 1 4.62-2.18 23.42 23.42 0 0 1 5.75-.68 20.31 20.31 0 0 1 6.86 1 14 14 0 0 1 4.51 2.56 9.43 9.43 0 0 1 2.51 3.36 8.84 8.84 0 0 1 .77 3.42 4 4 0 0 1-.83 2.56c-.55.71-1.59 1.07-3.13 1.07a3.58 3.58 0 0 1-2.59-.85 5.48 5.48 0 0 1-1.32-2 12.32 12.32 0 0 0-1.08-2.09 5.27 5.27 0 0 0-1.4-1.46 5.76 5.76 0 0 0-2-.85A13.47 13.47 0 0 0 333 387a6.75 6.75 0 0 0-4.43 1.24 4.23 4.23 0 0 0-1.46 3.39 6.25 6.25 0 0 0 .28 1.93 3.91 3.91 0 0 0 1.13 1.67 7.88 7.88 0 0 0 2.5 1.46 25.23 25.23 0 0 0 4.46 1.21 33.21 33.21 0 0 1 6.64 2 13.58 13.58 0 0 1 4 2.53 7.48 7.48 0 0 1 2 3.11 12.12 12.12 0 0 1 .53 3.58 9.37 9.37 0 0 1-.91 4.05 9 9 0 0 1-2.78 3.3 14.55 14.55 0 0 1-4.68 2.23 23.62 23.62 0 0 1-6.61.83 20.29 20.29 0 0 1-6.94-1.07 16.8 16.8 0 0 1-4.84-2.65 10.65 10.65 0 0 1-2.87-3.41 7.62 7.62 0 0 1-.93-3.39q-.02-3.68 3.17-3.68zm61.56.44a3.89 3.89 0 0 1 2.48.71 3.15 3.15 0 0 1 .88 2.54 7.23 7.23 0 0 1-1 3.38 10.91 10.91 0 0 1-3 3.42 17.66 17.66 0 0 1-5.12 2.61 22.62 22.62 0 0 1-7.27 1.05 20.94 20.94 0 0 1-8.18-1.46 15.56 15.56 0 0 1-5.72-4 16.33 16.33 0 0 1-3.39-6.19 27.13 27.13 0 0 1-1.1-7.9 23.85 23.85 0 0 1 .61-5.48 20.25 20.25 0 0 1 2-5.15 15.71 15.71 0 0 1 6.63-6.85 20.06 20.06 0 0 1 9.06-2 22.42 22.42 0 0 1 7.41 1.1 15.77 15.77 0 0 1 5.12 2.86 11.46 11.46 0 0 1 3 3.91 10.51 10.51 0 0 1 1 4.3 4.28 4.28 0 0 1-.93 2.86 3.55 3.55 0 0 1-2.87 1.1 3.73 3.73 0 0 1-2.89-1.1 12.61 12.61 0 0 1-1.9-2.81 21.32 21.32 0 0 0-1.15-2 6.94 6.94 0 0 0-1.43-1.57 6 6 0 0 0-2-1 10.11 10.11 0 0 0-2.9-.36 9.3 9.3 0 0 0-4.57 1 9.9 9.9 0 0 0-3.19 3.09 11 11 0 0 0-1.46 3.38 19.62 19.62 0 0 0-.58 5q0 6 2.67 9a9.26 9.26 0 0 0 7.3 3 12.72 12.72 0 0 0 3.74-.47 9.08 9.08 0 0 0 2.54-1.21 9.51 9.51 0 0 0 1.73-1.57c.46-.55.91-1.08 1.35-1.57a6.49 6.49 0 0 1 1.4-1.21 3.35 3.35 0 0 1 1.73-.41zm24.28 13.71a19.53 19.53 0 0 1-8-1.54 16 16 0 0 1-5.73-4.24 18.29 18.29 0 0 1-3.44-6.31 25.18 25.18 0 0 1-1.15-7.73 26.07 26.07 0 0 1 .57-5.51 16.51 16.51 0 0 1 2.12-5.12 21.56 21.56 0 0 1 2.87-3.74 13.88 13.88 0 0 1 3.49-2.65 16.47 16.47 0 0 1 4.35-1.54 26.69 26.69 0 0 1 5.37-.49 21.33 21.33 0 0 1 7.54 1.26 15.26 15.26 0 0 1 5.7 3.72 16.18 16.18 0 0 1 3.58 6 25.09 25.09 0 0 1 1.24 8.26 26.16 26.16 0 0 1-1 7.35 17.65 17.65 0 0 1-3.28 6.27 15.92 15.92 0 0 1-5.73 4.35 19.84 19.84 0 0 1-8.5 1.66zm.33-7.05q5.13 0 7.63-3.33t2.5-9.06a17 17 0 0 0-.6-4.54 11.15 11.15 0 0 0-1.88-3.83 9.25 9.25 0 0 0-3.19-2.64 9.73 9.73 0 0 0-4.51-1 10.63 10.63 0 0 0-4.57.93 8 8 0 0 0-3.2 2.7c-.33.48-.62 1-.88 1.43a9.53 9.53 0 0 0-.69 1.66 12.42 12.42 0 0 0-.46 2.23 23.14 23.14 0 0 0-.17 3.11q0 5.94 2.62 9.14a9 9 0 0 0 7.4 3.2z"/></g><path d="M102.53 164.8a8.52 8.52 0 0 1-16.27 5.07c-1.4-4.49-2-19.37 2.45-20.77s12.42 11.2 13.82 15.7z" fill="#f6921e"/><path d="M233.16 141.3c9.7-20.48 37.48-43.59 54.42-35.56s16.63 44.16 6.93 64.64-31.14 26.35-48.08 18.32-22.98-26.91-13.27-47.4z" fill="#fff"/><ellipse cx="244.99" cy="154.69" fill="#e73c31" rx="12.34" ry="7.11" transform="rotate(-65.25 244.973 154.693)"/></svg>